<?xml version="1.0" encoding="UTF-8" standalone="no"?>
<svg
   version="1.0"
   width="1080.000000pt"
   height="1080.000000pt"
   viewBox="0 0 1080.000000 1080.000000"
   preserveAspectRatio="xMidYMid meet"
   id="svg7"
   sodipodi:docname="logo.svg"
   inkscape:version="1.3.2 (091e20e, 2023-11-25, custom)"
   xmlns:inkscape="http://www.inkscape.org/namespaces/inkscape"
   xmlns:sodipodi="http://sodipodi.sourceforge.net/DTD/sodipodi-0.dtd"
   xmlns="http://www.w3.org/2000/svg"
   xmlns:svg="http://www.w3.org/2000/svg">
  <defs
     id="defs7" />
  <sodipodi:namedview
     id="namedview7"
     pagecolor="#505050"
     bordercolor="#ffffff"
     borderopacity="1"
     inkscape:showpageshadow="0"
     inkscape:pageopacity="0"
     inkscape:pagecheckerboard="1"
     inkscape:deskcolor="#505050"
     inkscape:document-units="pt"
     inkscape:zoom="0.56458333"
     inkscape:cx="720"
     inkscape:cy="720"
     inkscape:window-width="1920"
     inkscape:window-height="1009"
     inkscape:window-x="-8"
     inkscape:window-y="-8"
     inkscape:window-maximized="1"
     inkscape:current-layer="svg7" />
  <g
     transform="translate(0.000000,1080.000000) scale(0.100000,-0.100000)"
     fill="#000000"
     stroke="none"
     id="g7"
     style="fill:#bb3c5d;fill-opacity:1">
    <path
       d="M5122 10260 c-217 -76 -383 -148 -647 -280 -148 -75 -295 -152 -325 -171 -30 -20 -103 -66 -162 -103 -368 -231 -753 -575 -982 -880 -114 -151 -297 -448 -284 -461 2 -2 40 -17 86 -34 113 -42 347 -142 467 -199 l100 -48 120 82 c260 177 565 333 967 495 420 168 820 296 1303 418 232 58 368 89 540 122 200 38 211 40 398 69 255 39 552 70 677 70 44 0 80 4 80 9 0 5 -33 39 -72 74 -402 360 -1136 662 -2091 861 l-67 14 -108 -38z"
       id="path1"
       style="fill:#bb3c5d;fill-opacity:1" />
    <path
       d="M7065 8349 c-1298 -64 -2225 -189 -2790 -374 -178 -59 -396 -159 -395 -183 1 -4 37 -32 82 -62 101 -68 530 -389 661 -494 l97 -78 87 21 c99 23 216 46 283 56 25 4 72 11 105 16 672 106 1533 65 2225 -106 277 -68 601 -174 798 -261 21 -9 46 -20 57 -25 563 -239 1149 -615 1608 -1032 48 -44 90 -78 92 -76 4 5 -28 141 -50 204 -30 92 -73 190 -153 350 -394 788 -1150 1678 -1705 2007 l-72 43 -385 1 c-212 1 -457 -2 -545 -7z"
       id="path2"
       style="fill:#bb3c5d;fill-opacity:1" />
    <path
       d="M2441 7703 c-6 -32 -27 -139 -46 -238 -18 -99 -46 -241 -60 -315 -14 -74 -30 -157 -35 -185 -18 -99 -47 -226 -53 -232 -4 -3 -46 6 -94 21 -153 47 -276 85 -348 106 -38 12 -80 26 -93 31 -32 13 -62 11 -67 -3 -2 -7 -49 -159 -105 -338 -56 -179 -135 -433 -176 -565 -42 -132 -82 -262 -90 -290 -9 -27 -24 -75 -34 -105 -10 -30 -37 -116 -60 -190 -23 -74 -56 -182 -75 -240 -39 -126 -96 -308 -164 -525 -27 -88 -56 -180 -64 -205 -8 -25 -29 -92 -47 -150 -18 -58 -43 -139 -56 -180 -13 -41 -24 -76 -24 -77 0 -2 162 -3 360 -3 340 0 360 -1 360 -18 0 -10 -94 -303 -210 -651 -115 -348 -210 -637 -210 -642 0 -5 113 -9 274 -9 l274 0 74 -105 c40 -57 105 -150 143 -206 39 -56 74 -107 79 -114 5 -7 7 -19 3 -27 -4 -12 -15 -14 -59 -7 -29 4 -105 12 -168 19 -63 6 -153 15 -200 20 -208 24 -383 40 -388 36 -2 -3 -12 -47 -22 -98 -10 -51 -48 -241 -85 -423 -37 -181 -71 -350 -76 -375 -5 -25 -15 -76 -23 -114 -9 -38 -13 -73 -10 -77 3 -5 350 -9 771 -9 615 0 764 2 760 13 -2 7 -82 140 -176 297 -94 156 -167 288 -163 292 4 3 75 11 157 17 566 40 1056 232 1512 593 121 96 335 311 444 445 194 241 313 441 468 785 52 117 143 421 176 588 51 259 60 353 60 640 0 250 -5 311 -36 495 -88 514 -325 1014 -665 1406 -338 389 -729 658 -1234 848 -113 42 -417 120 -471 121 -12 0 -19 -16 -28 -57z m1158 -855 c296 -361 410 -504 411 -519 0 -12 -22 -19 -97 -32 -173 -28 -383 -65 -583 -101 -107 -20 -259 -46 -338 -60 -79 -13 -146 -27 -149 -30 -4 -3 3 -23 15 -44 53 -95 78 -225 62 -326 -17 -106 -34 -150 -91 -237 -46 -68 -128 -145 -196 -182 -64 -34 -190 -67 -257 -67 -138 1 -292 66 -387 162 -110 112 -163 240 -162 393 0 99 15 160 61 251 65 129 137 185 412 323 642 323 1156 585 1165 592 5 5 13 9 17 9 4 0 57 -60 117 -132z m-1502 -2005 c114 -150 318 -421 554 -733 102 -135 237 -313 299 -395 62 -83 121 -159 131 -171 11 -11 19 -25 19 -30 0 -5 -53 -57 -117 -114 -64 -58 -164 -147 -221 -199 -88 -81 -105 -92 -117 -80 -13 13 -70 109 -160 269 -23 41 -51 91 -62 110 -11 19 -72 125 -135 235 -187 327 -463 805 -507 880 -23 38 -41 76 -41 84 0 20 231 258 251 260 10 0 51 -45 106 -116z m1080 -109 c65 -81 129 -161 143 -178 13 -17 219 -275 457 -572 238 -298 433 -546 433 -551 0 -4 -59 -67 -130 -138 l-131 -130 -132 135 c-155 160 -341 351 -762 785 -170 176 -331 342 -358 369 -26 27 -46 53 -45 58 5 13 390 368 400 368 4 0 61 -66 125 -146z"
       id="path3"
       style="fill:#bb3c5d;fill-opacity:1" />
    <path
       d="M2284 5981 c-146 -66 -146 -289 -1 -357 29 -13 70 -24 92 -24 53 0 121 36 159 83 27 33 31 48 34 110 3 66 1 76 -26 118 -53 82 -164 113 -258 70z"
       id="path4"
       style="fill:#bb3c5d;fill-opacity:1" />
    <path
       d="M5635 6769 c-193 -14 -530 -61 -544 -75 -6 -6 -11 2 100 -145 142 -188 270 -385 388 -595 l62 -112 122 -42 c554 -192 1151 -538 1622 -939 879 -750 1487 -1754 1733 -2866 6 -27 16 -77 22 -110 7 -33 15 -78 20 -100 5 -22 18 -112 30 -200 12 -88 24 -182 28 -210 l7 -50 71 120 c141 237 241 431 340 663 8 17 21 48 30 68 60 135 190 536 234 719 45 192 55 242 84 420 53 326 66 495 66 834 l0 288 -88 139 c-644 1015 -1610 1731 -2762 2045 -75 21 -101 27 -195 48 -424 94 -944 132 -1370 100z"
       id="path5"
       style="fill:#bb3c5d;fill-opacity:1" />
    <path
       d="M5241 5645 c-1 -5 6 -44 15 -85 48 -231 64 -390 64 -669 0 -287 -12 -412 -62 -666 -110 -554 -363 -1073 -740 -1518 -34 -39 -120 -131 -193 -202 -404 -401 -900 -694 -1434 -844 -159 -45 -366 -91 -411 -91 -17 0 -30 -2 -30 -5 0 -5 152 -244 281 -440 44 -67 79 -126 79 -131 0 -16 -259 -23 -1143 -30 -428 -4 -779 -10 -781 -13 -2 -3 0 -31 5 -61 8 -54 17 -126 40 -307 12 -91 13 -93 38 -93 14 0 44 7 66 14 22 8 128 22 235 31 222 18 448 40 565 55 98 12 237 36 350 61 28 6 66 14 85 19 176 38 478 134 677 215 1287 524 2180 1571 2423 2840 40 208 70 518 70 715 -1 193 -32 520 -70 715 -40 205 -126 533 -129 490z"
       id="path6"
       style="fill:#bb3c5d;fill-opacity:1" />
    <path
       d="M5940 5155 c0 -3 6 -20 14 -38 24 -58 104 -337 140 -487 104 -437 139 -737 139 -1215 0 -564 -55 -945 -215 -1500 -22 -77 -44 -148 -49 -157 -14 -27 -2 -22 70 24 692 443 1283 1068 1710 1806 l43 73 -58 77 c-111 148 -273 328 -445 497 -367 358 -715 608 -1168 837 -178 90 -181 92 -181 83z"
       id="path7"
       style="fill:#bb3c5d;fill-opacity:1" />
  </g>
</svg>
